<mxfile host="app.diagrams.net" modified="2022-02-03T16:55:15.376Z" agent="5.0 (Windows NT 10.0; Win64; x64) AppleWebKit/537.36 (KHTML, like Gecko) Chrome/97.0.4692.99 Safari/537.36 Edg/97.0.1072.76" etag="z3gcBp8_JpoJHZN0z0TV" version="16.5.3" type="github">
  <diagram id="tYpWBHmPzQ8GlDJZznWl" name="Page-1">
    <mxGraphModel dx="1240" dy="1872" grid="1" gridSize="10" guides="1" tooltips="1" connect="1" arrows="1" fold="1" page="1" pageScale="1" pageWidth="827" pageHeight="1169" math="0" shadow="0">
      <root>
        <mxCell id="0" />
        <mxCell id="1" parent="0" />
        <mxCell id="cTJw4jK_xdqWJL08SFYX-1" value="" style="edgeStyle=orthogonalEdgeStyle;rounded=0;orthogonalLoop=1;jettySize=auto;html=1;" parent="1" source="cTJw4jK_xdqWJL08SFYX-2" target="cTJw4jK_xdqWJL08SFYX-6" edge="1">
          <mxGeometry relative="1" as="geometry" />
        </mxCell>
        <mxCell id="cTJw4jK_xdqWJL08SFYX-2" value="Inicio" style="strokeWidth=2;html=1;shape=mxgraph.flowchart.terminator;whiteSpace=wrap;fillColor=#dae8fc;strokeColor=#6c8ebf;" parent="1" vertex="1">
          <mxGeometry x="50" y="250" width="100" height="50" as="geometry" />
        </mxCell>
        <mxCell id="cTJw4jK_xdqWJL08SFYX-3" value="Objetivo: Calcular a media dos 4 bimestres e exibir se o aluno está aprovado ou não&lt;br&gt;Teste 1: 8, 5, 9, 10 = 8&lt;br&gt;Teste 2: 8, 6, 7, 0 = 5,5&lt;br&gt;Teste 3: 6, 5 = 2,75&lt;br&gt;" style="strokeWidth=2;html=1;shape=mxgraph.flowchart.annotation_2;align=left;labelPosition=right;pointerEvents=1;" parent="1" vertex="1">
          <mxGeometry x="150" width="50" height="100" as="geometry" />
        </mxCell>
        <mxCell id="cTJw4jK_xdqWJL08SFYX-4" value="Fim" style="strokeWidth=2;html=1;shape=mxgraph.flowchart.terminator;whiteSpace=wrap;fillColor=#dae8fc;strokeColor=#6c8ebf;" parent="1" vertex="1">
          <mxGeometry x="390" y="995" width="100" height="50" as="geometry" />
        </mxCell>
        <mxCell id="vcoiCkiEEp1TqXFV9q4--13" style="edgeStyle=orthogonalEdgeStyle;rounded=0;orthogonalLoop=1;jettySize=auto;html=1;entryX=0;entryY=0.5;entryDx=0;entryDy=0;entryPerimeter=0;fontSize=12;" edge="1" parent="1" source="cTJw4jK_xdqWJL08SFYX-6" target="vcoiCkiEEp1TqXFV9q4--12">
          <mxGeometry relative="1" as="geometry" />
        </mxCell>
        <mxCell id="cTJw4jK_xdqWJL08SFYX-6" value="Receber a nota do primeiro bimestre" style="rounded=1;whiteSpace=wrap;html=1;absoluteArcSize=1;arcSize=14;strokeWidth=2;fillColor=#d5e8d4;strokeColor=#82b366;" parent="1" vertex="1">
          <mxGeometry x="40" y="355" width="120" height="60" as="geometry" />
        </mxCell>
        <mxCell id="vcoiCkiEEp1TqXFV9q4--19" style="edgeStyle=orthogonalEdgeStyle;rounded=0;orthogonalLoop=1;jettySize=auto;html=1;entryX=0;entryY=0.5;entryDx=0;entryDy=0;entryPerimeter=0;fontSize=12;exitX=0.75;exitY=1;exitDx=0;exitDy=0;" edge="1" parent="1" source="cTJw4jK_xdqWJL08SFYX-8" target="vcoiCkiEEp1TqXFV9q4--17">
          <mxGeometry relative="1" as="geometry" />
        </mxCell>
        <mxCell id="cTJw4jK_xdqWJL08SFYX-8" value="Receber a nota do segundo bimestre" style="rounded=1;whiteSpace=wrap;html=1;absoluteArcSize=1;arcSize=14;strokeWidth=2;fillColor=#d5e8d4;strokeColor=#82b366;" parent="1" vertex="1">
          <mxGeometry x="220" y="355" width="120" height="60" as="geometry" />
        </mxCell>
        <mxCell id="vcoiCkiEEp1TqXFV9q4--23" style="edgeStyle=orthogonalEdgeStyle;rounded=0;orthogonalLoop=1;jettySize=auto;html=1;entryX=0;entryY=0.5;entryDx=0;entryDy=0;entryPerimeter=0;fontSize=12;exitX=0.75;exitY=1;exitDx=0;exitDy=0;" edge="1" parent="1" source="cTJw4jK_xdqWJL08SFYX-10" target="vcoiCkiEEp1TqXFV9q4--22">
          <mxGeometry relative="1" as="geometry">
            <Array as="points">
              <mxPoint x="514" y="500" />
            </Array>
          </mxGeometry>
        </mxCell>
        <mxCell id="cTJw4jK_xdqWJL08SFYX-10" value="Receber a nota do terceiro bimestre" style="rounded=1;whiteSpace=wrap;html=1;absoluteArcSize=1;arcSize=14;strokeWidth=2;fillColor=#d5e8d4;strokeColor=#82b366;" parent="1" vertex="1">
          <mxGeometry x="424" y="355" width="120" height="60" as="geometry" />
        </mxCell>
        <mxCell id="vcoiCkiEEp1TqXFV9q4--28" style="edgeStyle=orthogonalEdgeStyle;rounded=0;orthogonalLoop=1;jettySize=auto;html=1;entryX=0;entryY=0.5;entryDx=0;entryDy=0;entryPerimeter=0;fontSize=12;" edge="1" parent="1" source="cTJw4jK_xdqWJL08SFYX-12" target="vcoiCkiEEp1TqXFV9q4--27">
          <mxGeometry relative="1" as="geometry" />
        </mxCell>
        <mxCell id="cTJw4jK_xdqWJL08SFYX-12" value="Receber a nota do quarto bimestre" style="rounded=1;whiteSpace=wrap;html=1;absoluteArcSize=1;arcSize=14;strokeWidth=2;fillColor=#d5e8d4;strokeColor=#82b366;" parent="1" vertex="1">
          <mxGeometry x="600" y="355" width="120" height="60" as="geometry" />
        </mxCell>
        <mxCell id="vcoiCkiEEp1TqXFV9q4--2" value="" style="edgeStyle=orthogonalEdgeStyle;rounded=0;orthogonalLoop=1;jettySize=auto;html=1;fontSize=12;" edge="1" parent="1" source="cTJw4jK_xdqWJL08SFYX-14" target="vcoiCkiEEp1TqXFV9q4--1">
          <mxGeometry relative="1" as="geometry" />
        </mxCell>
        <mxCell id="cTJw4jK_xdqWJL08SFYX-14" value="Somas as quatro notas e dividir por quatro" style="rounded=1;whiteSpace=wrap;html=1;absoluteArcSize=1;arcSize=14;strokeWidth=2;fillColor=#d5e8d4;strokeColor=#82b366;" parent="1" vertex="1">
          <mxGeometry x="600" y="590" width="120" height="60" as="geometry" />
        </mxCell>
        <mxCell id="cTJw4jK_xdqWJL08SFYX-17" value="" style="edgeStyle=orthogonalEdgeStyle;rounded=0;orthogonalLoop=1;jettySize=auto;html=1;" parent="1" edge="1">
          <mxGeometry relative="1" as="geometry">
            <mxPoint x="610" y="290" as="sourcePoint" />
          </mxGeometry>
        </mxCell>
        <mxCell id="cTJw4jK_xdqWJL08SFYX-19" style="edgeStyle=orthogonalEdgeStyle;rounded=0;orthogonalLoop=1;jettySize=auto;html=1;entryX=0;entryY=0.5;entryDx=0;entryDy=0;" parent="1" edge="1">
          <mxGeometry relative="1" as="geometry">
            <mxPoint x="670" y="370" as="sourcePoint" />
          </mxGeometry>
        </mxCell>
        <mxCell id="vcoiCkiEEp1TqXFV9q4--5" value="Sim" style="edgeStyle=orthogonalEdgeStyle;rounded=0;orthogonalLoop=1;jettySize=auto;html=1;entryX=0.5;entryY=0;entryDx=0;entryDy=0;fontSize=12;" edge="1" parent="1" source="vcoiCkiEEp1TqXFV9q4--1" target="vcoiCkiEEp1TqXFV9q4--4">
          <mxGeometry relative="1" as="geometry" />
        </mxCell>
        <mxCell id="vcoiCkiEEp1TqXFV9q4--6" value="Nao" style="edgeStyle=orthogonalEdgeStyle;rounded=0;orthogonalLoop=1;jettySize=auto;html=1;entryX=0.5;entryY=0;entryDx=0;entryDy=0;fontSize=12;" edge="1" parent="1" source="vcoiCkiEEp1TqXFV9q4--1" target="vcoiCkiEEp1TqXFV9q4--3">
          <mxGeometry relative="1" as="geometry" />
        </mxCell>
        <mxCell id="vcoiCkiEEp1TqXFV9q4--1" value="&lt;font style=&quot;font-size: 12px&quot;&gt;A media é maior que 7?&lt;/font&gt;" style="strokeWidth=2;html=1;shape=mxgraph.flowchart.decision;whiteSpace=wrap;fillColor=#e1d5e7;strokeColor=#9673a6;" vertex="1" parent="1">
          <mxGeometry x="390" y="675" width="100" height="110" as="geometry" />
        </mxCell>
        <mxCell id="vcoiCkiEEp1TqXFV9q4--11" style="edgeStyle=orthogonalEdgeStyle;rounded=0;orthogonalLoop=1;jettySize=auto;html=1;entryX=1;entryY=0.5;entryDx=0;entryDy=0;entryPerimeter=0;fontSize=12;" edge="1" parent="1" source="vcoiCkiEEp1TqXFV9q4--3" target="cTJw4jK_xdqWJL08SFYX-4">
          <mxGeometry relative="1" as="geometry" />
        </mxCell>
        <mxCell id="vcoiCkiEEp1TqXFV9q4--3" value="Exibir reprovado" style="rounded=1;whiteSpace=wrap;html=1;absoluteArcSize=1;arcSize=14;strokeWidth=2;fillColor=#d5e8d4;strokeColor=#82b366;" vertex="1" parent="1">
          <mxGeometry x="500" y="835" width="120" height="60" as="geometry" />
        </mxCell>
        <mxCell id="vcoiCkiEEp1TqXFV9q4--10" style="edgeStyle=orthogonalEdgeStyle;rounded=0;orthogonalLoop=1;jettySize=auto;html=1;entryX=0;entryY=0.7;entryDx=0;entryDy=0;entryPerimeter=0;fontSize=12;" edge="1" parent="1" source="vcoiCkiEEp1TqXFV9q4--4" target="cTJw4jK_xdqWJL08SFYX-4">
          <mxGeometry relative="1" as="geometry" />
        </mxCell>
        <mxCell id="vcoiCkiEEp1TqXFV9q4--4" value="Exibir aprovado" style="rounded=1;whiteSpace=wrap;html=1;absoluteArcSize=1;arcSize=14;strokeWidth=2;fillColor=#d5e8d4;strokeColor=#82b366;" vertex="1" parent="1">
          <mxGeometry x="260" y="835" width="120" height="60" as="geometry" />
        </mxCell>
        <mxCell id="vcoiCkiEEp1TqXFV9q4--14" value="Sim" style="edgeStyle=orthogonalEdgeStyle;rounded=0;orthogonalLoop=1;jettySize=auto;html=1;fontSize=12;entryX=0.25;entryY=1;entryDx=0;entryDy=0;" edge="1" parent="1" source="vcoiCkiEEp1TqXFV9q4--12" target="cTJw4jK_xdqWJL08SFYX-8">
          <mxGeometry relative="1" as="geometry">
            <mxPoint x="280" y="425" as="targetPoint" />
            <Array as="points">
              <mxPoint x="250" y="500" />
            </Array>
          </mxGeometry>
        </mxCell>
        <mxCell id="vcoiCkiEEp1TqXFV9q4--15" value="Nao" style="edgeStyle=orthogonalEdgeStyle;rounded=0;orthogonalLoop=1;jettySize=auto;html=1;entryX=1;entryY=0.5;entryDx=0;entryDy=0;fontSize=12;" edge="1" parent="1" source="vcoiCkiEEp1TqXFV9q4--12" target="cTJw4jK_xdqWJL08SFYX-6">
          <mxGeometry relative="1" as="geometry" />
        </mxCell>
        <mxCell id="vcoiCkiEEp1TqXFV9q4--12" value="&lt;font style=&quot;font-size: 12px&quot;&gt;Tem nota ?&lt;/font&gt;" style="strokeWidth=2;html=1;shape=mxgraph.flowchart.decision;whiteSpace=wrap;fillColor=#e1d5e7;strokeColor=#9673a6;" vertex="1" parent="1">
          <mxGeometry x="150" y="455" width="90" height="90" as="geometry" />
        </mxCell>
        <mxCell id="vcoiCkiEEp1TqXFV9q4--20" value="Nao" style="edgeStyle=orthogonalEdgeStyle;rounded=0;orthogonalLoop=1;jettySize=auto;html=1;entryX=1;entryY=0.5;entryDx=0;entryDy=0;fontSize=12;" edge="1" parent="1" source="vcoiCkiEEp1TqXFV9q4--17" target="cTJw4jK_xdqWJL08SFYX-8">
          <mxGeometry relative="1" as="geometry" />
        </mxCell>
        <mxCell id="vcoiCkiEEp1TqXFV9q4--21" value="Sim" style="edgeStyle=orthogonalEdgeStyle;rounded=0;orthogonalLoop=1;jettySize=auto;html=1;entryX=0.25;entryY=1;entryDx=0;entryDy=0;fontSize=12;exitX=1;exitY=0.5;exitDx=0;exitDy=0;exitPerimeter=0;" edge="1" parent="1" source="vcoiCkiEEp1TqXFV9q4--17" target="cTJw4jK_xdqWJL08SFYX-10">
          <mxGeometry x="0.2806" relative="1" as="geometry">
            <Array as="points">
              <mxPoint x="454" y="500" />
            </Array>
            <mxPoint as="offset" />
          </mxGeometry>
        </mxCell>
        <mxCell id="vcoiCkiEEp1TqXFV9q4--17" value="&lt;font style=&quot;font-size: 12px&quot;&gt;Tem nota ?&lt;/font&gt;" style="strokeWidth=2;html=1;shape=mxgraph.flowchart.decision;whiteSpace=wrap;fillColor=#e1d5e7;strokeColor=#9673a6;" vertex="1" parent="1">
          <mxGeometry x="340" y="455" width="90" height="90" as="geometry" />
        </mxCell>
        <mxCell id="vcoiCkiEEp1TqXFV9q4--24" value="Nao" style="edgeStyle=orthogonalEdgeStyle;rounded=0;orthogonalLoop=1;jettySize=auto;html=1;entryX=1;entryY=0.5;entryDx=0;entryDy=0;fontSize=12;" edge="1" parent="1" source="vcoiCkiEEp1TqXFV9q4--22" target="cTJw4jK_xdqWJL08SFYX-10">
          <mxGeometry relative="1" as="geometry" />
        </mxCell>
        <mxCell id="vcoiCkiEEp1TqXFV9q4--25" value="Sim" style="edgeStyle=orthogonalEdgeStyle;rounded=0;orthogonalLoop=1;jettySize=auto;html=1;entryX=0.25;entryY=1;entryDx=0;entryDy=0;fontSize=12;" edge="1" parent="1" source="vcoiCkiEEp1TqXFV9q4--22" target="cTJw4jK_xdqWJL08SFYX-12">
          <mxGeometry relative="1" as="geometry">
            <Array as="points">
              <mxPoint x="630" y="500" />
            </Array>
          </mxGeometry>
        </mxCell>
        <mxCell id="vcoiCkiEEp1TqXFV9q4--22" value="&lt;font style=&quot;font-size: 12px&quot;&gt;Tem nota ?&lt;/font&gt;" style="strokeWidth=2;html=1;shape=mxgraph.flowchart.decision;whiteSpace=wrap;fillColor=#e1d5e7;strokeColor=#9673a6;" vertex="1" parent="1">
          <mxGeometry x="530" y="455" width="90" height="90" as="geometry" />
        </mxCell>
        <mxCell id="vcoiCkiEEp1TqXFV9q4--29" value="Nao" style="edgeStyle=orthogonalEdgeStyle;rounded=0;orthogonalLoop=1;jettySize=auto;html=1;entryX=1;entryY=0.5;entryDx=0;entryDy=0;fontSize=12;" edge="1" parent="1" source="vcoiCkiEEp1TqXFV9q4--27" target="cTJw4jK_xdqWJL08SFYX-12">
          <mxGeometry relative="1" as="geometry" />
        </mxCell>
        <mxCell id="vcoiCkiEEp1TqXFV9q4--30" value="Sim" style="edgeStyle=orthogonalEdgeStyle;rounded=0;orthogonalLoop=1;jettySize=auto;html=1;entryX=0.5;entryY=0;entryDx=0;entryDy=0;fontSize=12;" edge="1" parent="1" source="vcoiCkiEEp1TqXFV9q4--27" target="cTJw4jK_xdqWJL08SFYX-14">
          <mxGeometry relative="1" as="geometry" />
        </mxCell>
        <mxCell id="vcoiCkiEEp1TqXFV9q4--27" value="&lt;font style=&quot;font-size: 12px&quot;&gt;Tem nota ?&lt;/font&gt;" style="strokeWidth=2;html=1;shape=mxgraph.flowchart.decision;whiteSpace=wrap;fillColor=#e1d5e7;strokeColor=#9673a6;" vertex="1" parent="1">
          <mxGeometry x="700" y="455" width="90" height="90" as="geometry" />
        </mxCell>
      </root>
    </mxGraphModel>
  </diagram>
</mxfile>
